<svg width="37" height="32" viewBox="0 0 37 32" fill="none" xmlns="http://www.w3.org/2000/svg">
<g clip-path="url(#clip0_8_11)">
<path d="M25.4374 4C22.7549 4 20.1803 5.08 18.4999 6.78667C16.8195 5.08 14.2449 4 11.5624 4C6.81409 4 3.08325 7.22667 3.08325 11.3333C3.08325 16.3733 8.32492 20.48 16.2645 26.72L18.4999 28.4667L20.7353 26.7067C28.6749 20.48 33.9166 16.3733 33.9166 11.3333C33.9166 7.22667 30.1858 4 25.4374 4ZM18.6541 24.7333L18.4999 24.8667L18.3458 24.7333C11.0074 18.9867 6.16659 15.1867 6.16659 11.3333C6.16659 8.66667 8.47909 6.66667 11.5624 6.66667C13.9366 6.66667 16.2491 7.98667 17.0662 9.81333H19.9491C20.7508 7.98667 23.0633 6.66667 25.4374 6.66667C28.5208 6.66667 30.8333 8.66667 30.8333 11.3333C30.8333 15.1867 25.9924 18.9867 18.6541 24.7333Z" fill="#141414"/>
</g>
<defs>
<clipPath id="clip0_8_11">
<rect width="37" height="32" fill="white"/>
</clipPath>
</defs>
</svg>
